<svg width="172" height="48" viewBox="0 0 172 48" fill="none" xmlns="http://www.w3.org/2000/svg">
<g clip-path="url(#clip0_84_188)">
<path d="M6.68013 4.20458H0V0H81.8665V4.20458H11.0764L10.9691 36.9402H6.68013V4.20458Z" fill="white"/>
<path d="M165.32 43.0111H172V47.2157H84.1611V43.0111H160.924L161.031 10.2755H165.32V43.0111Z" fill="white"/>
<path d="M17.7565 10.6938H26.1737C31.1489 10.6938 34.623 13.4718 34.623 18.1805C34.623 21.9668 32.3498 24.1227 29.5298 24.895C32.768 26.4824 35.0841 30.998 35.8561 36.9402H31.299C30.2589 30.805 27.4818 26.5575 24.1578 26.5575H22.1527V36.9402H17.7565V10.6938ZM26.1308 14.8984H22.1527V22.3529H26.1308C28.4039 22.3529 30.0659 21.0443 30.0659 18.6417C30.0659 16.2391 28.4039 14.8984 26.1308 14.8984Z" fill="white"/>
<path d="M54.5025 30.4617H44.5091L42.1502 36.9509H37.25L47.0504 10.6938H51.9506L61.751 36.9509H56.8508L54.4918 30.4617H54.5025ZM45.9352 26.2572H53.0764L49.5273 16.4536L45.9352 26.2572Z" fill="white"/>
<path d="M65.075 10.6938H73.4171C78.3923 10.6938 81.8664 13.7078 81.8664 18.8026C81.8664 23.8974 78.3923 26.8685 73.4171 26.8685H69.4819V36.9402H65.0857V10.6938H65.075ZM73.3313 14.8984H69.4712V22.664H73.3313C75.6045 22.664 77.3094 21.4305 77.3094 18.8026C77.3094 16.1748 75.6152 14.8984 73.3313 14.8984Z" fill="white"/>
<path d="M102.036 25.8281H88.5681V36.9509H84.1719V10.6938H88.5681V21.6235H102.036V10.6938H106.432V36.9509H102.036V25.8281Z" fill="white"/>
<path d="M123.502 10.2647C131.179 10.2647 137.012 16.1318 137.012 23.8116C137.012 31.4914 131.179 37.3585 123.502 37.3585C115.825 37.3585 109.992 31.4914 109.992 23.8116C109.992 16.1318 115.814 10.2647 123.502 10.2647ZM123.502 32.9716C128.563 32.9716 132.455 28.9172 132.455 23.8224C132.455 18.7275 128.552 14.6731 123.502 14.6731C118.452 14.6731 114.506 18.7275 114.506 23.8224C114.506 28.9172 118.366 32.9716 123.502 32.9716Z" fill="white"/>
<path d="M140.54 36.9509V10.6938H144.936V32.7356H155.048V36.9402H140.529L140.54 36.9509Z" fill="white"/>
</g>
<defs>
<clipPath id="clip0_84_188">
<rect width="172" height="47.2157" fill="white"/>
</clipPath>
</defs>
</svg>
